# xmcd CD database file
#
# Track frame offsets:
#	150
#	12398
#	26957
#	38153
#	49985
#	60659
#	71771
#	86819
#	97115
#	111875
#	123071
#	134399
#	146078
#	156400
#	166696
#	177001
#	187387
#	199135
#	209887
#	219943
#
# Disc length: 3054 seconds
#
# Revision: 1
# Processed by: cddbd v1.5.2PL0 Copyright (c) Steve Scherf et al.
# Submitted via: jetAudio 7
#
DISCID=370bec14
DTITLE=Chet Atkins - Pickin' On Country
DYEAR=1964
DGENRE=Country
TTITLE0=South
TTITLE1=Indiana (Back Home In Indiana)
TTITLE2=Alabama Jubilee
TTITLE3=Have You Ever Been Lonely (Have You Ever Been Blue)
TTITLE4=Red Wing
TTITLE5=Old Man River
TTITLE6=Caravan
TTITLE7=Corrine, Corrina
TTITLE8=The Birth Of The Blues
TTITLE9=A Gay Ranchero
TTITLE10=Frankie And Johnny
TTITLE11=Honeysuckle Rose
TTITLE12=Mister Sandman
TTITLE13=Black Mountain Rag
TTITLE14=Counrty Gentleman
TTITLE15=Main Street Breakdown
TTITLE16=Hangover Blues
TTITLE17=City Slicker
TTITLE18=The Bells Of St. Mary's
TTITLE19=The Poor People Of Paris
EXTD=
EXTT0=
EXTT1=
EXTT2=
EXTT3=
EXTT4=
EXTT5=
EXTT6=
EXTT7=
EXTT8=
EXTT9=
EXTT10=
EXTT11=
EXTT12=
EXTT13=
EXTT14=
EXTT15=
EXTT16=
EXTT17=
EXTT18=
EXTT19=
PLAYORDER=
